<svg width="306" height="30" viewBox="0 0 306 30" fill="none" xmlns="http://www.w3.org/2000/svg">
<path d="M61.5172 11.5245C61.5172 11.9136 61.4674 12.3027 61.3726 12.6919C61.2728 13.081 61.1131 13.4352 60.8886 13.7595C60.6641 14.0838 60.3748 14.3632 60.0156 14.6126C59.6564 14.8621 59.2223 15.0417 58.7135 15.1614V15.2961C59.1625 15.3709 59.5865 15.5006 59.9906 15.6802C60.3947 15.8598 60.744 16.1043 61.0483 16.4186C61.3476 16.7329 61.5821 17.1171 61.7567 17.5661C61.9263 18.0151 62.0161 18.5439 62.0161 19.1575C62.0161 19.9657 61.8415 20.6642 61.5023 21.2579C61.158 21.8516 60.6991 22.3305 60.1203 22.7047C59.5416 23.0788 58.8881 23.3532 58.1547 23.5378C57.4213 23.7174 56.663 23.8072 55.8897 23.8072C55.6353 23.8072 55.311 23.8072 54.9119 23.8072C54.5128 23.8072 54.0887 23.7972 53.6347 23.7723C53.1757 23.7523 52.7118 23.7174 52.2428 23.6725C51.7689 23.6276 51.3398 23.5628 50.9507 23.473V7.97733C51.2351 7.93242 51.5593 7.88752 51.9285 7.84262C52.2927 7.79772 52.6868 7.75781 53.1059 7.73287C53.525 7.70293 53.954 7.67799 54.398 7.66302C54.8371 7.64806 55.2761 7.64307 55.7101 7.64307C56.4435 7.64307 57.1569 7.69794 57.8554 7.81269C58.5538 7.92245 59.1724 8.122 59.7162 8.40637C60.26 8.69074 60.6991 9.08986 61.0283 9.59374C61.3526 10.1026 61.5172 10.7462 61.5172 11.5245ZM54.8969 14.4679C55.1065 14.4679 55.3509 14.458 55.6253 14.448C55.8997 14.433 56.1292 14.4131 56.3088 14.3831C56.8775 14.2035 57.3665 13.9391 57.7805 13.5849C58.1896 13.2307 58.3992 12.7617 58.3992 12.183C58.3992 11.7989 58.3243 11.4796 58.1747 11.2251C58.025 10.9757 57.8254 10.7711 57.581 10.6265C57.3365 10.4818 57.0522 10.377 56.7378 10.3171C56.4235 10.2573 56.0943 10.2273 55.75 10.2273C55.3609 10.2273 55.0017 10.2373 54.6724 10.2473C54.3432 10.2623 54.0887 10.2822 53.9091 10.3121V14.4679H54.8969ZM55.9047 21.223C56.2789 21.223 56.6431 21.1781 56.9923 21.0883C57.3415 20.9984 57.6558 20.8637 57.9252 20.6792C58.1946 20.4946 58.4091 20.2601 58.5788 19.9807C58.7434 19.7013 58.8282 19.3671 58.8282 18.9829C58.8282 18.494 58.7284 18.1099 58.5389 17.8255C58.3443 17.5461 58.0899 17.3266 57.7755 17.1719C57.4612 17.0173 57.112 16.9175 56.7229 16.8726C56.3337 16.8277 55.9446 16.8077 55.5555 16.8077H53.9191V21.0982C53.9939 21.1282 54.1137 21.1481 54.2783 21.1631C54.4429 21.178 54.6175 21.188 54.8071 21.198C54.9967 21.208 55.1913 21.213 55.3908 21.218C55.5804 21.2229 55.755 21.223 55.9047 21.223Z" fill="#F4F2F2"/>
<path d="M64.1463 13.0059C64.745 12.7365 65.4534 12.522 66.2766 12.3673C67.0998 12.2076 67.9629 12.1328 68.8559 12.1328C69.6342 12.1328 70.2827 12.2276 70.8116 12.4122C71.3354 12.6018 71.7495 12.8662 72.0588 13.2104C72.3631 13.5547 72.5826 13.9687 72.7123 14.4427C72.8371 14.9216 72.9019 15.4604 72.9019 16.0591C72.9019 16.7176 72.882 17.3812 72.8371 18.0447C72.7922 18.7132 72.7672 19.3668 72.7572 20.0103C72.7473 20.6539 72.7672 21.2775 72.8121 21.8862C72.857 22.4898 72.9718 23.0636 73.1514 23.6024H70.7717L70.2977 22.0558H70.1879C69.8886 22.5198 69.4745 22.9189 68.9407 23.2581C68.4069 23.5924 67.7234 23.762 66.8853 23.762C66.3614 23.762 65.8875 23.6822 65.4734 23.5275C65.0543 23.3679 64.6951 23.1434 64.3958 22.854C64.0965 22.5647 63.867 22.2204 63.6973 21.8213C63.5277 21.4222 63.4529 20.9782 63.4529 20.4843C63.4529 19.7958 63.6075 19.2171 63.9119 18.7432C64.2162 18.2692 64.6602 17.89 65.2339 17.6007C65.8077 17.3113 66.5011 17.1068 67.2993 16.997C68.0976 16.8823 68.9956 16.8523 69.9834 16.8972C70.0882 16.0591 70.0283 15.4554 69.8038 15.0913C69.5793 14.7271 69.0754 14.5425 68.2971 14.5425C67.7134 14.5425 67.0948 14.6023 66.4462 14.7221C65.7927 14.8418 65.2589 15.0015 64.8398 15.196L64.1463 13.0059ZM67.8481 21.3574C68.4318 21.3574 68.8958 21.2276 69.24 20.9632C69.5843 20.7038 69.8387 20.4194 70.0034 20.1201V18.6583C69.5394 18.6134 69.0954 18.6085 68.6663 18.6384C68.2423 18.6683 67.8631 18.7382 67.5338 18.8429C67.2046 18.9477 66.9401 19.0974 66.7456 19.2919C66.551 19.4865 66.4562 19.731 66.4562 20.0303C66.4562 20.4494 66.5809 20.7737 66.8254 21.0081C67.0699 21.2426 67.4141 21.3574 67.8481 21.3574Z" fill="#F4F2F2"/>
<path d="M82.1266 23.5833V17.2074C82.1266 16.2944 81.9969 15.6359 81.7325 15.2318C81.4731 14.8277 81.024 14.6281 80.3954 14.6281C79.8417 14.6281 79.3727 14.7878 78.9936 15.112C78.6094 15.4363 78.34 15.8354 78.1754 16.3144V23.5882H75.2568V12.3631H77.5717L77.906 13.8448H77.9958C78.34 13.3659 78.794 12.9468 79.3627 12.5876C79.9315 12.2284 80.6648 12.0488 81.5628 12.0488C82.1166 12.0488 82.6105 12.1237 83.0446 12.2733C83.4786 12.423 83.8428 12.6675 84.1421 13.0117C84.4415 13.3559 84.666 13.8249 84.8156 14.4136C84.9653 15.0073 85.0401 15.7357 85.0401 16.6037V23.5882H82.1266V23.5833Z" fill="#F4F2F2"/>
<path d="M95.4421 22.8844C94.9931 23.2137 94.4493 23.4631 93.8157 23.6377C93.1771 23.8074 92.5236 23.8972 91.8501 23.8972C90.9521 23.8972 90.1937 23.7525 89.5701 23.4731C88.9465 23.1887 88.4426 22.7896 88.0535 22.2708C87.6643 21.7519 87.385 21.1283 87.2104 20.3949C87.0357 19.6616 86.9509 18.8534 86.9509 17.9703C86.9509 16.0695 87.375 14.6078 88.2281 13.58C89.0812 12.5573 90.3234 12.0435 91.9548 12.0435C92.778 12.0435 93.4415 12.1083 93.9404 12.248C94.4393 12.3827 94.8933 12.5573 95.2974 12.7619L94.599 15.1416C94.2547 14.977 93.9155 14.8522 93.5762 14.7624C93.237 14.6726 92.8528 14.6277 92.4188 14.6277C91.6106 14.6277 90.997 14.8921 90.5779 15.426C90.1588 15.9598 89.9493 16.8079 89.9493 17.9753C89.9493 18.4542 89.9992 18.8933 90.1039 19.3024C90.2087 19.7065 90.3634 20.0557 90.5729 20.355C90.7824 20.6544 91.0568 20.8888 91.3911 21.0635C91.7253 21.2381 92.1195 21.3229 92.5685 21.3229C93.0624 21.3229 93.4814 21.258 93.8257 21.1333C94.1699 21.0086 94.4792 20.8539 94.7486 20.6743L95.4421 22.8844Z" fill="#F4F2F2"/>
<path d="M96.3398 17.9703C96.3398 16.0695 96.8038 14.6078 97.7318 13.58C98.6597 12.5573 99.9618 12.0435 101.638 12.0435C102.536 12.0435 103.314 12.1881 103.973 12.4675C104.631 12.7519 105.175 13.151 105.609 13.6698C106.043 14.1887 106.368 14.8123 106.587 15.5457C106.802 16.2791 106.911 17.0873 106.911 17.9703C106.911 19.8711 106.452 21.3329 105.529 22.3606C104.607 23.3833 103.309 23.8972 101.633 23.8972C100.735 23.8972 99.9568 23.7525 99.2983 23.4731C98.6397 23.1887 98.091 22.7896 97.6469 22.2708C97.2029 21.7519 96.8737 21.1283 96.6591 20.3949C96.4446 19.6616 96.3398 18.8534 96.3398 17.9703ZM99.3482 17.9703C99.3482 18.4642 99.3931 18.9232 99.4829 19.3423C99.5727 19.7613 99.7074 20.1305 99.887 20.4448C100.067 20.7591 100.301 21.0036 100.595 21.1732C100.885 21.3478 101.234 21.4326 101.638 21.4326C102.401 21.4326 102.97 21.1582 103.344 20.5995C103.718 20.0457 103.903 19.1726 103.903 17.9753C103.903 16.9426 103.728 16.1094 103.389 15.4709C103.045 14.8373 102.461 14.518 101.638 14.518C100.92 14.518 100.361 14.7874 99.9518 15.3262C99.5477 15.86 99.3482 16.743 99.3482 17.9703Z" fill="#F4F2F2"/>
<path d="M121.529 20.1005H116.7L115.512 23.5778H112.434L118.092 7.75293H120.357L126.014 23.5778H122.781L121.529 20.1005ZM117.488 17.631H120.855L119.688 14.1288L119.214 11.6593H119.104L118.63 14.1487L117.488 17.631Z" fill="#F4F2F2"/>
<path d="M136.366 23.5829C136.366 25.2143 135.922 26.4166 135.039 27.1849C134.156 27.9532 132.919 28.3423 131.337 28.3423C130.26 28.3423 129.412 28.2675 128.788 28.1178C128.164 27.9682 127.7 27.8085 127.386 27.6439L127.99 25.334C128.334 25.4687 128.733 25.6034 129.192 25.7381C129.646 25.8728 130.215 25.9377 130.888 25.9377C131.906 25.9377 132.599 25.7182 132.964 25.2741C133.328 24.8351 133.512 24.2165 133.512 23.4232V22.7048H133.423C132.899 23.4083 131.971 23.7625 130.639 23.7625C129.187 23.7625 128.104 23.3135 127.396 22.4155C126.683 21.5175 126.328 20.1106 126.328 18.1948C126.328 16.1893 126.807 14.6677 127.765 13.6399C128.723 12.6072 130.115 12.0884 131.941 12.0884C132.899 12.0884 133.757 12.1532 134.51 12.2929C135.264 12.4276 135.882 12.5823 136.361 12.7619V23.5829H136.366ZM131.427 21.4277C131.996 21.4277 132.435 21.3029 132.739 21.0485C133.043 20.7941 133.283 20.4149 133.448 19.906V14.8473C132.984 14.6527 132.405 14.5579 131.721 14.5579C130.973 14.5579 130.389 14.8373 129.97 15.401C129.551 15.9598 129.342 16.8578 129.342 18.0851C129.342 19.1777 129.521 20.0108 129.88 20.5795C130.24 21.1433 130.754 21.4277 131.427 21.4277Z" fill="#F4F2F2"/>
<path d="M145.102 15.0967C144.638 14.932 144.219 14.8472 143.845 14.8472C143.321 14.8472 142.882 14.9869 142.532 15.2613C142.178 15.5407 141.944 15.8949 141.824 16.3289V23.5828H138.906V12.3577H141.17L141.51 13.8395H141.6C141.854 13.2857 142.198 12.8616 142.632 12.5623C143.066 12.2629 143.575 12.1133 144.159 12.1133C144.548 12.1133 144.987 12.1981 145.481 12.3627L145.102 15.0967Z" fill="#F4F2F2"/>
<path d="M146.718 13.0059C147.317 12.7365 148.025 12.522 148.848 12.3673C149.672 12.2076 150.535 12.1328 151.428 12.1328C152.206 12.1328 152.855 12.2276 153.383 12.4122C153.907 12.6018 154.321 12.8662 154.631 13.2104C154.935 13.5547 155.154 13.9687 155.284 14.4427C155.409 14.9216 155.474 15.4604 155.474 16.0591C155.474 16.7176 155.454 17.3812 155.409 18.0447C155.364 18.7132 155.339 19.3668 155.329 20.0103C155.319 20.6539 155.339 21.2775 155.384 21.8862C155.429 22.4898 155.544 23.0636 155.723 23.6024H153.343L152.869 22.0558H152.76C152.46 22.5198 152.046 22.9189 151.512 23.2581C150.979 23.5924 150.295 23.762 149.457 23.762C148.933 23.762 148.459 23.6822 148.045 23.5275C147.626 23.3679 147.267 23.1434 146.968 22.854C146.668 22.5647 146.439 22.2204 146.269 21.8213C146.099 21.4222 146.025 20.9782 146.025 20.4843C146.025 19.7958 146.179 19.2171 146.484 18.7432C146.788 18.2692 147.232 17.89 147.806 17.6007C148.379 17.3113 149.073 17.1068 149.871 16.997C150.669 16.8823 151.567 16.8523 152.555 16.8972C152.66 16.0591 152.6 15.4554 152.376 15.0913C152.151 14.7271 151.647 14.5425 150.869 14.5425C150.285 14.5425 149.667 14.6023 149.018 14.7221C148.364 14.8418 147.831 15.0015 147.412 15.196L146.718 13.0059ZM150.42 21.3574C151.004 21.3574 151.468 21.2276 151.812 20.9632C152.156 20.7038 152.41 20.4194 152.575 20.1201V18.6583C152.111 18.6134 151.667 18.6085 151.238 18.6384C150.814 18.6683 150.435 18.7382 150.106 18.8429C149.776 18.9477 149.512 19.0974 149.317 19.2919C149.123 19.4865 149.028 19.731 149.028 20.0303C149.028 20.4494 149.153 20.7737 149.397 21.0081C149.642 21.2426 149.986 21.3574 150.42 21.3574Z" fill="#F4F2F2"/>
<path d="M164.114 15.0967C163.651 14.932 163.231 14.8472 162.857 14.8472C162.333 14.8472 161.894 14.9869 161.545 15.2613C161.191 15.5407 160.956 15.8949 160.837 16.3289V23.5828H157.918V12.3577H160.183L160.522 13.8395H160.612C160.867 13.2857 161.211 12.8616 161.645 12.5623C162.079 12.2629 162.588 12.1133 163.172 12.1133C163.561 12.1133 164 12.1981 164.494 12.3627L164.114 15.0967Z" fill="#F4F2F2"/>
<path d="M165.641 9.18968C165.641 8.75564 165.801 8.38646 166.125 8.07715C166.449 7.76783 166.893 7.61816 167.462 7.61816C168.031 7.61816 168.49 7.77282 168.844 8.07715C169.193 8.38646 169.373 8.75564 169.373 9.18968C169.373 9.62372 169.198 9.98791 168.844 10.2773C168.49 10.5666 168.031 10.7163 167.462 10.7163C166.893 10.7163 166.449 10.5716 166.125 10.2773C165.801 9.98292 165.641 9.62372 165.641 9.18968ZM166.07 12.3577H168.988V23.5828H166.07V12.3577Z" fill="#F4F2F2"/>
<path d="M171.299 17.9703C171.299 16.0695 171.763 14.6078 172.691 13.58C173.618 12.5573 174.921 12.0435 176.597 12.0435C177.495 12.0435 178.273 12.1881 178.932 12.4675C179.59 12.7519 180.134 13.151 180.568 13.6698C181.002 14.1887 181.326 14.8123 181.546 15.5457C181.76 16.2791 181.87 17.0873 181.87 17.9703C181.87 19.8711 181.411 21.3329 180.488 22.3606C179.565 23.3833 178.268 23.8972 176.592 23.8972C175.694 23.8972 174.916 23.7525 174.257 23.4731C173.598 23.1887 173.05 22.7896 172.606 22.2708C172.162 21.7519 171.832 21.1283 171.618 20.3949C171.408 19.6616 171.299 18.8534 171.299 17.9703ZM174.307 17.9703C174.307 18.4642 174.352 18.9232 174.442 19.3423C174.531 19.7613 174.666 20.1305 174.846 20.4448C175.025 20.7591 175.26 21.0036 175.554 21.1732C175.844 21.3478 176.193 21.4326 176.597 21.4326C177.36 21.4326 177.929 21.1582 178.303 20.5995C178.677 20.0457 178.862 19.1726 178.862 17.9753C178.862 16.9426 178.687 16.1094 178.348 15.4709C178.004 14.8373 177.42 14.518 176.597 14.518C175.878 14.518 175.32 14.7874 174.911 15.3262C174.511 15.86 174.307 16.743 174.307 17.9703Z" fill="#F4F2F2"/>
<path d="M199.112 19.6311C199.112 20.2597 199.117 20.8883 199.132 21.5169C199.147 22.1455 199.212 22.839 199.336 23.6023H197.246L196.842 22.1455H196.752C196.453 22.6694 196.024 23.0934 195.46 23.4127C194.901 23.737 194.238 23.8966 193.474 23.8966C192.068 23.8966 190.975 23.4327 190.197 22.5047C189.418 21.5768 189.029 20.125 189.029 18.1494C189.029 16.2336 189.463 14.7419 190.331 13.6793C191.199 12.6167 192.472 12.0828 194.148 12.0828C194.612 12.0828 194.991 12.1078 195.29 12.1627C195.59 12.2175 195.889 12.3024 196.188 12.4221V7.86719H199.107V19.6311H199.112ZM194.153 21.4271C194.722 21.4271 195.171 21.2874 195.5 21.013C195.829 20.7386 196.059 20.3345 196.198 19.8107V15.0513C195.989 14.8866 195.754 14.7619 195.5 14.6821C195.245 14.6023 194.916 14.5574 194.512 14.5574C193.689 14.5574 193.07 14.8367 192.661 15.3905C192.247 15.9443 192.043 16.8922 192.043 18.2392C192.043 19.1971 192.212 19.9654 192.546 20.5491C192.886 21.1328 193.42 21.4271 194.153 21.4271Z" fill="#F4F2F2"/>
<path d="M210.651 22.6151C210.202 22.9743 209.594 23.2786 208.82 23.5231C208.047 23.7726 207.229 23.8923 206.361 23.8923C204.55 23.8923 203.223 23.3635 202.385 22.3108C201.547 21.2581 201.127 19.8063 201.127 17.9654C201.127 15.9898 201.601 14.5081 202.539 13.5203C203.482 12.5325 204.809 12.0386 206.515 12.0386C207.084 12.0386 207.638 12.1134 208.177 12.2631C208.716 12.4127 209.195 12.6572 209.614 13.0014C210.033 13.3457 210.367 13.8096 210.621 14.3934C210.876 14.9771 211.006 15.7054 211.006 16.5735C211.006 16.8878 210.986 17.2221 210.951 17.5863C210.911 17.9455 210.856 18.3196 210.781 18.7088H204.051C204.096 19.6517 204.34 20.3601 204.779 20.8391C205.218 21.318 205.937 21.5575 206.925 21.5575C207.538 21.5575 208.087 21.4627 208.576 21.2781C209.06 21.0885 209.434 20.8989 209.688 20.7044L210.651 22.6151ZM206.476 14.3784C205.712 14.3784 205.149 14.6079 204.779 15.0619C204.41 15.5209 204.191 16.1295 204.116 16.8928H208.292C208.351 16.0846 208.227 15.466 207.922 15.0319C207.618 14.5929 207.134 14.3784 206.476 14.3784Z" fill="#F4F2F2"/>
<path d="M229.175 22.9396C228.696 23.2788 228.088 23.5233 227.344 23.673C226.606 23.8226 225.843 23.8975 225.064 23.8975C224.121 23.8975 223.228 23.7528 222.38 23.4584C221.532 23.1691 220.789 22.6951 220.145 22.0466C219.502 21.393 218.988 20.5499 218.609 19.5072C218.224 18.4695 218.035 17.2073 218.035 15.7256C218.035 14.184 218.249 12.8919 218.673 11.8542C219.098 10.8165 219.651 9.97833 220.335 9.33975C221.018 8.70615 221.777 8.24717 222.615 7.96779C223.453 7.6934 224.291 7.55371 225.129 7.55371C226.027 7.55371 226.786 7.61358 227.409 7.73331C228.028 7.85305 228.542 7.99274 228.946 8.15737L228.342 10.7616C227.998 10.597 227.589 10.4772 227.12 10.4024C226.646 10.3276 226.077 10.2926 225.404 10.2926C224.161 10.2926 223.164 10.7367 222.405 11.6197C221.647 12.5027 221.273 13.8747 221.273 15.7356C221.273 16.5438 221.363 17.2821 221.542 17.9507C221.722 18.6192 221.996 19.1879 222.36 19.6619C222.725 20.1358 223.184 20.5 223.732 20.7644C224.276 21.0288 224.91 21.1585 225.628 21.1585C226.302 21.1585 226.87 21.0937 227.334 20.959C227.798 20.8243 228.202 20.6497 228.547 20.4401L229.175 22.9396Z" fill="#F4F2F2"/>
<path d="M229.669 17.9703C229.669 16.0695 230.133 14.6078 231.061 13.58C231.989 12.5573 233.291 12.0435 234.967 12.0435C235.865 12.0435 236.644 12.1881 237.302 12.4675C237.961 12.7519 238.505 13.151 238.939 13.6698C239.373 14.1887 239.697 14.8123 239.916 15.5457C240.131 16.2791 240.241 17.0873 240.241 17.9703C240.241 19.8711 239.782 21.3329 238.859 22.3606C237.936 23.3833 236.639 23.8972 234.962 23.8972C234.064 23.8972 233.286 23.7525 232.628 23.4731C231.969 23.1887 231.42 22.7896 230.976 22.2708C230.532 21.7519 230.203 21.1283 229.988 20.3949C229.779 19.6616 229.669 18.8534 229.669 17.9703ZM232.678 17.9703C232.678 18.4642 232.722 18.9232 232.812 19.3423C232.902 19.7613 233.037 20.1305 233.216 20.4448C233.396 20.7591 233.63 21.0036 233.925 21.1732C234.214 21.3478 234.563 21.4326 234.967 21.4326C235.731 21.4326 236.299 21.1582 236.674 20.5995C237.048 20.0457 237.232 19.1726 237.232 17.9753C237.232 16.9426 237.058 16.1094 236.719 15.4709C236.374 14.8373 235.791 14.518 234.967 14.518C234.249 14.518 233.69 14.7874 233.281 15.3262C232.877 15.86 232.678 16.743 232.678 17.9703Z" fill="#F4F2F2"/>
<path d="M245.27 19.8113C245.27 20.3351 245.334 20.7193 245.469 20.9538C245.604 21.1882 245.818 21.313 246.123 21.313C246.302 21.313 246.477 21.298 246.652 21.2681C246.821 21.2381 247.036 21.1683 247.29 21.0635L247.604 23.3534C247.365 23.4732 247.001 23.5929 246.502 23.7126C246.008 23.8324 245.499 23.8922 244.975 23.8922C244.122 23.8922 243.474 23.6927 243.025 23.2986C242.576 22.9044 242.351 22.2459 242.351 21.3329V7.86279H245.27V19.8113Z" fill="#F4F2F2"/>
<path d="M248.323 17.9703C248.323 16.0695 248.787 14.6078 249.715 13.58C250.643 12.5573 251.945 12.0435 253.621 12.0435C254.519 12.0435 255.297 12.1881 255.956 12.4675C256.614 12.7519 257.158 13.151 257.592 13.6698C258.026 14.1887 258.351 14.8123 258.57 15.5457C258.785 16.2791 258.894 17.0873 258.894 17.9703C258.894 19.8711 258.435 21.3329 257.512 22.3606C256.589 23.3833 255.292 23.8972 253.616 23.8972C252.718 23.8972 251.94 23.7525 251.281 23.4731C250.623 23.1887 250.074 22.7896 249.63 22.2708C249.186 21.7519 248.857 21.1283 248.642 20.3949C248.433 19.6616 248.323 18.8534 248.323 17.9703ZM251.331 17.9703C251.331 18.4642 251.376 18.9232 251.466 19.3423C251.556 19.7613 251.69 20.1305 251.87 20.4448C252.049 20.7591 252.284 21.0036 252.578 21.1732C252.868 21.3478 253.217 21.4326 253.621 21.4326C254.384 21.4326 254.953 21.1582 255.327 20.5995C255.701 20.0457 255.886 19.1726 255.886 17.9753C255.886 16.9426 255.711 16.1094 255.372 15.4709C255.028 14.8373 254.444 14.518 253.621 14.518C252.903 14.518 252.344 14.7874 251.935 15.3262C251.536 15.86 251.331 16.743 251.331 17.9703Z" fill="#F4F2F2"/>
<path d="M267.296 23.5833V17.4768C267.296 16.4441 267.196 15.7107 267.001 15.2767C266.807 14.8426 266.403 14.6281 265.789 14.6281C265.28 14.6281 264.866 14.7678 264.552 15.0422C264.237 15.3166 263.998 15.6758 263.833 16.1098V23.5882H260.915V12.3631H263.18L263.519 13.8448H263.609C263.953 13.3659 264.392 12.9468 264.921 12.5876C265.45 12.2284 266.138 12.0488 266.976 12.0488C267.695 12.0488 268.283 12.1935 268.737 12.4879C269.191 12.7772 269.551 13.2711 269.805 13.9596C270.149 13.3759 270.593 12.9119 271.132 12.5677C271.671 12.2234 272.32 12.0488 273.088 12.0488C273.716 12.0488 274.25 12.1237 274.694 12.2733C275.133 12.423 275.492 12.6824 275.772 13.0466C276.046 13.4158 276.256 13.9047 276.39 14.5184C276.525 15.132 276.595 15.9103 276.595 16.8532V23.5882H273.677V17.2722C273.677 16.3892 273.582 15.7257 273.397 15.2866C273.208 14.8476 272.793 14.6231 272.15 14.6231C271.626 14.6231 271.212 14.7678 270.903 15.0522C270.593 15.3365 270.369 15.7257 270.219 16.2196V23.5833H267.296Z" fill="#F4F2F2"/>
<path d="M278.99 7.86719H281.908V13.2552H281.998C282.312 12.896 282.716 12.6117 283.21 12.4021C283.704 12.1926 284.248 12.0878 284.852 12.0878C286.199 12.0878 287.226 12.5468 287.94 13.4698C288.648 14.3877 289.008 15.7946 289.008 17.6804C289.008 19.7009 288.509 21.2325 287.516 22.2802C286.518 23.3279 285.156 23.8517 283.42 23.8517C282.462 23.8517 281.584 23.7719 280.791 23.6173C279.998 23.4626 279.399 23.283 278.995 23.0884V7.86719H278.99ZM283.999 14.5574C283.46 14.5574 283.021 14.697 282.687 14.9714C282.352 15.2508 282.093 15.6499 281.913 16.1738V21.0679C282.153 21.1876 282.412 21.2725 282.687 21.3174C282.961 21.3623 283.26 21.3822 283.575 21.3822C284.368 21.3822 284.971 21.0929 285.381 20.5191C285.79 19.9454 285.999 19.0274 285.999 17.7702C285.994 15.625 285.331 14.5574 283.999 14.5574Z" fill="#F4F2F2"/>
<path d="M290.868 9.18968C290.868 8.75564 291.028 8.38646 291.352 8.07715C291.677 7.76783 292.121 7.61816 292.689 7.61816C293.258 7.61816 293.717 7.77282 294.071 8.07715C294.421 8.38646 294.6 8.75564 294.6 9.18968C294.6 9.62372 294.426 9.98791 294.071 10.2773C293.717 10.5666 293.258 10.7163 292.689 10.7163C292.121 10.7163 291.677 10.5716 291.352 10.2773C291.028 9.98292 290.868 9.62372 290.868 9.18968ZM291.292 12.3577H294.211V23.5828H291.292V12.3577Z" fill="#F4F2F2"/>
<path d="M296.995 13.0059C297.594 12.7365 298.302 12.522 299.125 12.3673C299.948 12.2076 300.812 12.1328 301.705 12.1328C302.483 12.1328 303.131 12.2276 303.66 12.4122C304.184 12.6018 304.598 12.8662 304.907 13.2104C305.212 13.5547 305.431 13.9687 305.561 14.4427C305.686 14.9216 305.751 15.4604 305.751 16.0591C305.751 16.7176 305.731 17.3812 305.686 18.0447C305.641 18.7132 305.616 19.3668 305.606 20.0103C305.596 20.6539 305.616 21.2775 305.661 21.8862C305.706 22.4898 305.82 23.0636 306 23.6024H303.62L303.146 22.0558H303.037C302.737 22.5198 302.323 22.9189 301.789 23.2581C301.256 23.5924 300.572 23.762 299.734 23.762C299.21 23.762 298.736 23.6822 298.322 23.5275C297.903 23.3679 297.544 23.1434 297.244 22.854C296.945 22.5647 296.716 22.2204 296.546 21.8213C296.376 21.4222 296.302 20.9782 296.302 20.4843C296.302 19.7958 296.456 19.2171 296.761 18.7432C297.065 18.2692 297.509 17.89 298.083 17.6007C298.656 17.3113 299.35 17.1068 300.148 16.997C300.946 16.8823 301.844 16.8523 302.832 16.8972C302.937 16.0591 302.877 15.4554 302.652 15.0913C302.428 14.7271 301.924 14.5425 301.146 14.5425C300.562 14.5425 299.943 14.6023 299.295 14.7221C298.641 14.8418 298.108 15.0015 297.688 15.196L296.995 13.0059ZM300.702 21.3574C301.285 21.3574 301.749 21.2276 302.094 20.9632C302.438 20.7038 302.692 20.4194 302.857 20.1201V18.6583C302.393 18.6134 301.949 18.6085 301.52 18.6384C301.096 18.6683 300.717 18.7382 300.387 18.8429C300.058 18.9477 299.794 19.0974 299.599 19.2919C299.405 19.4865 299.31 19.731 299.31 20.0303C299.31 20.4494 299.435 20.7737 299.679 21.0081C299.923 21.2426 300.268 21.3574 300.702 21.3574Z" fill="#F4F2F2"/>
<path d="M27.7964 5.55269C27.7914 8.6159 25.1223 11.0954 21.8296 11.0854C18.5369 11.0754 15.8778 8.59594 15.8828 5.53274C15.8878 2.46953 18.5619 -0.00498141 21.8496 7.5305e-06C25.1373 0.00499647 27.8014 2.48949 27.7964 5.55269Z" fill="#F4F2F2"/>
<path d="M39.7101 5.9519C39.6253 5.21853 38.9668 4.68471 38.2284 4.75955C37.969 4.77451 37.7145 4.85933 37.5 5.00899C37.485 5.01897 37.4252 5.06387 37.4252 5.06387C31.7577 9.19471 26.5343 13.9043 21.8397 19.1127C17.1402 13.8993 11.9167 9.18972 6.24432 5.05389C6.22437 5.03893 6.19942 5.01897 6.17947 5.004C5.96494 4.85434 5.71051 4.76952 5.45108 4.75456C4.71272 4.67972 4.05418 5.21354 3.96937 5.94691C3.9544 6.16144 3.99431 6.38095 4.0891 6.57552C4.0891 6.58051 4.15396 6.69026 4.15396 6.69525C7.79588 13.1709 12.1662 19.2075 17.1851 24.6854C17.9883 25.5634 18.8065 26.4265 19.6396 27.2746C20.8769 28.4819 22.8575 28.462 24.0748 27.2297C24.898 26.3966 25.7012 25.5484 26.4894 24.6804C31.5083 19.2075 35.8786 13.1709 39.5205 6.69525C39.5205 6.69026 39.5854 6.58051 39.5854 6.57552C39.6852 6.38095 39.7251 6.16643 39.7101 5.9519Z" fill="#F4F2F2"/>
<path d="M29.2233 28.0627C30.6052 25.3188 32.4711 22.8492 34.736 20.7738C36.8913 18.7882 39.3508 17.1569 42.0249 15.9545C42.0398 15.9445 42.0598 15.9396 42.0748 15.9346C42.1945 15.8847 42.3192 15.8597 42.4489 15.8498C43.0576 15.7899 43.6064 16.2289 43.6762 16.8425C43.6912 17.0371 43.6513 17.2317 43.5565 17.4013L43.5265 17.4512C42.0947 19.8858 40.3286 22.1159 38.2881 24.0715C36.098 26.1768 33.6235 27.9629 30.9345 29.3797C30.67 29.5544 30.3408 29.6192 30.0315 29.5544C29.5425 29.4745 29.1734 29.0804 29.1285 28.5865C29.1035 28.4019 29.1384 28.2173 29.2233 28.0627ZM14.461 28.0627C13.0791 25.3188 11.2132 22.8492 8.94323 20.7688C6.78801 18.7832 4.32847 17.1519 1.6544 15.9495C1.63943 15.9396 1.61948 15.9346 1.60451 15.9296C1.48478 15.8797 1.36005 15.8547 1.23034 15.8448C0.621689 15.7849 0.0729065 16.2289 0.00306139 16.8376C-0.0119054 17.0321 0.0280061 17.2267 0.122796 17.3963L0.152729 17.4462C1.58455 19.8808 3.35064 22.1109 5.39111 24.0665C7.58125 26.1719 10.0558 27.9579 12.7448 29.3748C13.0092 29.5494 13.3385 29.6142 13.6478 29.5494C14.1367 29.4695 14.5059 29.0754 14.5508 28.5815C14.5807 28.4019 14.5458 28.2173 14.461 28.0627Z" fill="#F4F2F2"/>
</svg>
