<svg width="358" height="35" viewBox="0 0 358 35" fill="none" xmlns="http://www.w3.org/2000/svg">
<path d="M71.8865 13.4672C71.8865 13.9219 71.8282 14.3767 71.7174 14.8314C71.6008 15.2861 71.4142 15.7 71.1519 16.079C70.8896 16.4579 70.5514 16.7844 70.1317 17.0759C69.7119 17.3674 69.2047 17.5773 68.6101 17.7172V17.8746C69.1348 17.962 69.6303 18.1136 70.1025 18.3235C70.5747 18.5334 70.9828 18.819 71.3385 19.1863C71.6882 19.5536 71.9622 20.0025 72.1663 20.5272C72.3645 21.0519 72.4694 21.6698 72.4694 22.3869C72.4694 23.3313 72.2654 24.1475 71.869 24.8413C71.4667 25.535 70.9304 26.0947 70.2541 26.5319C69.5778 26.9692 68.8141 27.2898 67.9571 27.5055C67.1001 27.7154 66.214 27.8203 65.3104 27.8203C65.0131 27.8203 64.6341 27.8203 64.1677 27.8203C63.7013 27.8203 63.2058 27.8087 62.6753 27.7795C62.1389 27.7562 61.5968 27.7154 61.0487 27.6629C60.4949 27.6105 59.9935 27.5347 59.5388 27.4297V9.32218C59.8711 9.26971 60.2501 9.21724 60.6815 9.16477C61.107 9.11231 61.5676 9.06567 62.0573 9.03652C62.547 9.00154 63.0484 8.97239 63.5672 8.9549C64.0803 8.93741 64.5933 8.93158 65.1005 8.93158C65.9575 8.93158 66.7912 8.99571 67.6073 9.12979C68.4235 9.25805 69.1464 9.49125 69.7819 9.82355C70.4173 10.1559 70.9304 10.6222 71.3151 11.2111C71.6941 11.8057 71.8865 12.5578 71.8865 13.4672ZM64.1502 16.9068C64.3951 16.9068 64.6808 16.8952 65.0014 16.8835C65.322 16.866 65.5902 16.8427 65.8001 16.8077C66.4647 16.5978 67.036 16.2889 67.5199 15.8749C67.9979 15.461 68.2428 14.913 68.2428 14.2368C68.2428 13.7879 68.1553 13.4147 67.9805 13.1174C67.8056 12.8259 67.5724 12.5869 67.2867 12.4178C67.001 12.2488 66.6687 12.1263 66.3015 12.0564C65.9342 11.9864 65.5494 11.9514 65.1471 11.9514C64.6924 11.9514 64.2727 11.9631 63.8879 11.9748C63.5031 11.9923 63.2058 12.0156 62.9959 12.0506V16.9068H64.1502ZM65.3279 24.8005C65.7651 24.8005 66.1907 24.748 66.5988 24.6431C67.0069 24.5381 67.3741 24.3807 67.689 24.165C68.0038 23.9493 68.2545 23.6753 68.4527 23.3488C68.6451 23.0224 68.7442 22.6318 68.7442 22.1829C68.7442 21.6115 68.6276 21.1626 68.406 20.8303C68.1787 20.5039 67.8813 20.2473 67.5141 20.0666C67.1468 19.8859 66.7387 19.7693 66.284 19.7168C65.8292 19.6644 65.3745 19.641 64.9198 19.641H63.0076V24.6547C63.095 24.6897 63.2349 24.713 63.4273 24.7305C63.6197 24.748 63.8238 24.7597 64.0453 24.7713C64.2668 24.783 64.4942 24.7888 64.7274 24.7946C64.9489 24.8005 65.153 24.8005 65.3279 24.8005Z" fill="#5C4738"/>
<path d="M74.9585 15.1986C75.6581 14.8838 76.486 14.6331 77.4479 14.4524C78.4098 14.2659 79.4184 14.1784 80.4619 14.1784C81.3714 14.1784 82.1293 14.2892 82.7472 14.5049C83.3594 14.7264 83.8432 15.0354 84.2047 15.4377C84.5603 15.8399 84.8168 16.3238 84.9684 16.8776C85.1142 17.4373 85.1899 18.0669 85.1899 18.7665C85.1899 19.536 85.1666 20.3114 85.1142 21.0868C85.0617 21.868 85.0325 22.6317 85.0209 23.3838C85.0092 24.1358 85.0325 24.8645 85.085 25.5758C85.1375 26.2812 85.2716 26.9516 85.4814 27.5813H82.7006L82.1468 25.774H82.0185C81.6687 26.3162 81.1848 26.7826 80.561 27.179C79.9372 27.5696 79.1386 27.7678 78.1591 27.7678C77.547 27.7678 76.9932 27.6745 76.5093 27.4938C76.0196 27.3072 75.5998 27.0449 75.25 26.7068C74.9002 26.3686 74.6321 25.9664 74.4339 25.5C74.2356 25.0336 74.1482 24.5147 74.1482 23.9376C74.1482 23.1331 74.3289 22.4568 74.6845 21.903C75.0402 21.3491 75.559 20.9061 76.2295 20.5679C76.8999 20.2298 77.7102 19.9908 78.643 19.8625C79.5758 19.7284 80.6252 19.6935 81.7795 19.7459C81.9019 18.7665 81.8319 18.0611 81.5696 17.6355C81.3073 17.2099 80.7184 16.9942 79.809 16.9942C79.1269 16.9942 78.404 17.0642 77.6461 17.2041C76.8824 17.344 76.2586 17.5306 75.7689 17.7579L74.9585 15.1986ZM79.2843 24.9578C79.9664 24.9578 80.5086 24.8062 80.9108 24.4973C81.3131 24.1941 81.6104 23.8618 81.8028 23.512V21.8039C81.2606 21.7514 80.7418 21.7456 80.2404 21.7805C79.7449 21.8155 79.3018 21.8971 78.917 22.0196C78.5322 22.142 78.2233 22.3169 77.9959 22.5443C77.7685 22.7716 77.6578 23.0573 77.6578 23.4071C77.6578 23.8968 77.8035 24.2757 78.0892 24.5497C78.3748 24.8237 78.7771 24.9578 79.2843 24.9578Z" fill="#5C4738"/>
<path d="M95.9696 27.558V20.1075C95.9696 19.0406 95.818 18.2711 95.5091 17.7989C95.2059 17.3266 94.6812 17.0934 93.9467 17.0934C93.2995 17.0934 92.7515 17.28 92.3085 17.6589C91.8596 18.0379 91.5448 18.5043 91.3524 19.0639V27.5639H87.9419V14.4467H90.6469L91.0375 16.1782H91.1425C91.5448 15.6185 92.0753 15.1288 92.7399 14.709C93.4045 14.2893 94.2615 14.0794 95.3108 14.0794C95.9579 14.0794 96.5351 14.1669 97.0423 14.3418C97.5495 14.5166 97.9751 14.8023 98.3249 15.2046C98.6747 15.6068 98.937 16.1548 99.1119 16.8428C99.2868 17.5365 99.3742 18.3877 99.3742 19.4021V27.5639H95.9696V27.558Z" fill="#5C4738"/>
<path d="M111.53 26.7418C111.005 27.1266 110.369 27.4181 109.629 27.6221C108.883 27.8204 108.119 27.9253 107.332 27.9253C106.283 27.9253 105.397 27.7562 104.668 27.4298C103.939 27.0975 103.35 26.6311 102.896 26.0248C102.441 25.4185 102.114 24.6897 101.91 23.8327C101.706 22.9757 101.607 22.0313 101.607 20.9994C101.607 18.7782 102.103 17.0701 103.1 15.8691C104.097 14.674 105.548 14.0735 107.455 14.0735C108.416 14.0735 109.192 14.1493 109.775 14.3126C110.358 14.47 110.888 14.674 111.361 14.913L110.544 17.6939C110.142 17.5015 109.746 17.3558 109.349 17.2508C108.953 17.1459 108.504 17.0934 107.997 17.0934C107.052 17.0934 106.335 17.4024 105.845 18.0262C105.356 18.65 105.111 19.6411 105.111 21.0052C105.111 21.5649 105.169 22.0779 105.292 22.556C105.414 23.0282 105.595 23.4363 105.84 23.7861C106.085 24.1359 106.405 24.4099 106.796 24.6139C107.186 24.818 107.647 24.9171 108.172 24.9171C108.749 24.9171 109.238 24.8413 109.641 24.6956C110.043 24.5498 110.404 24.3691 110.719 24.1592L111.53 26.7418Z" fill="#5C4738"/>
<path d="M112.579 20.9995C112.579 18.7783 113.121 17.0702 114.205 15.8692C115.29 14.6741 116.811 14.0736 118.77 14.0736C119.82 14.0736 120.729 14.2427 121.499 14.5691C122.268 14.9014 122.904 15.3678 123.411 15.9741C123.918 16.5804 124.297 17.3092 124.553 18.1662C124.804 19.0232 124.932 19.9676 124.932 20.9995C124.932 23.2207 124.396 24.9288 123.317 26.1298C122.239 27.3249 120.723 27.9254 118.764 27.9254C117.715 27.9254 116.806 27.7563 116.036 27.4298C115.266 27.0975 114.625 26.6311 114.106 26.0248C113.587 25.4185 113.203 24.6898 112.952 23.8328C112.701 22.9758 112.579 22.0314 112.579 20.9995ZM116.094 20.9995C116.094 21.5766 116.147 22.113 116.252 22.6027C116.357 23.0924 116.514 23.5238 116.724 23.8911C116.934 24.2584 117.208 24.544 117.552 24.7422C117.89 24.9463 118.298 25.0454 118.77 25.0454C119.662 25.0454 120.327 24.7248 120.764 24.0718C121.201 23.4247 121.417 22.4045 121.417 21.0053C121.417 19.7985 121.213 18.8249 120.816 18.0787C120.414 17.3383 119.732 16.9652 118.77 16.9652C117.931 16.9652 117.278 17.28 116.8 17.9097C116.327 18.5335 116.094 19.5653 116.094 20.9995Z" fill="#5C4738"/>
<path d="M142.014 23.4888H136.371L134.983 27.5522H131.386L137.997 9.05988H140.644L147.255 27.5522H143.477L142.014 23.4888ZM137.292 20.603H141.227L139.863 16.5104L139.309 13.6247H139.181L138.627 16.5338L137.292 20.603Z" fill="#5C4738"/>
<path d="M159.352 27.558C159.352 29.4643 158.833 30.8693 157.801 31.7671C156.769 32.6649 155.324 33.1197 153.475 33.1197C152.216 33.1197 151.225 33.0322 150.496 32.8573C149.768 32.6824 149.226 32.4959 148.858 32.3035L149.564 29.6043C149.966 29.7617 150.432 29.9191 150.969 30.0765C151.499 30.2339 152.164 30.3097 152.951 30.3097C154.14 30.3097 154.95 30.0532 155.376 29.5343C155.802 29.0213 156.017 28.2984 156.017 27.3714V26.5319H155.912C155.3 27.3539 154.216 27.7678 152.659 27.7678C150.963 27.7678 149.698 27.2432 148.87 26.1938C148.036 25.1444 147.622 23.5004 147.622 21.2617C147.622 18.9181 148.182 17.14 149.301 15.9391C150.421 14.7323 152.047 14.126 154.181 14.126C155.3 14.126 156.303 14.2018 157.183 14.365C158.064 14.5224 158.786 14.7031 159.346 14.913V27.558H159.352ZM153.58 25.0395C154.245 25.0395 154.758 24.8937 155.114 24.5964C155.469 24.2991 155.749 23.856 155.942 23.2614V17.3499C155.399 17.1225 154.723 17.0118 153.924 17.0118C153.05 17.0118 152.368 17.3382 151.878 17.997C151.388 18.6499 151.144 19.6993 151.144 21.1335C151.144 22.4102 151.353 23.3838 151.773 24.0484C152.193 24.7072 152.793 25.0395 153.58 25.0395Z" fill="#5C4738"/>
<path d="M169.56 17.6414C169.018 17.449 168.528 17.3499 168.091 17.3499C167.479 17.3499 166.965 17.5131 166.557 17.8338C166.143 18.1603 165.869 18.5742 165.73 19.0814V27.558H162.319V14.4408H164.966L165.362 16.1723H165.467C165.765 15.5252 166.167 15.0296 166.674 14.6798C167.181 14.33 167.776 14.1552 168.458 14.1552C168.913 14.1552 169.426 14.2543 170.003 14.4466L169.56 17.6414Z" fill="#5C4738"/>
<path d="M171.449 15.1987C172.148 14.8839 172.976 14.6332 173.938 14.4525C174.9 14.2659 175.909 14.1785 176.952 14.1785C177.862 14.1785 178.62 14.2892 179.237 14.5049C179.85 14.7265 180.333 15.0355 180.695 15.4377C181.051 15.84 181.307 16.3239 181.459 16.8777C181.604 17.4374 181.68 18.067 181.68 18.7666C181.68 19.5361 181.657 20.3115 181.604 21.0868C181.552 21.868 181.523 22.6318 181.511 23.3838C181.499 24.1359 181.523 24.8646 181.575 25.5758C181.628 26.2813 181.762 26.9517 181.972 27.5813H179.191L178.637 25.7741H178.509C178.159 26.3162 177.675 26.7826 177.051 27.1791C176.427 27.5697 175.629 27.7679 174.649 27.7679C174.037 27.7679 173.483 27.6746 173 27.4939C172.51 27.3073 172.09 27.045 171.74 26.7068C171.39 26.3687 171.122 25.9664 170.924 25.5001C170.726 25.0337 170.638 24.5148 170.638 23.9377C170.638 23.1331 170.819 22.4569 171.175 21.903C171.53 21.3492 172.049 20.9061 172.72 20.568C173.39 20.2299 174.2 19.9908 175.133 19.8626C176.066 19.7285 177.115 19.6935 178.27 19.746C178.392 18.7666 178.322 18.0612 178.06 17.6356C177.798 17.21 177.209 16.9943 176.299 16.9943C175.617 16.9943 174.894 17.0642 174.136 17.2042C173.373 17.3441 172.749 17.5306 172.259 17.758L171.449 15.1987ZM175.775 24.9579C176.457 24.9579 176.999 24.8063 177.401 24.4973C177.803 24.1942 178.101 23.8619 178.293 23.5121V21.8039C177.751 21.7515 177.232 21.7456 176.731 21.7806C176.235 21.8156 175.792 21.8972 175.407 22.0196C175.022 22.1421 174.714 22.3169 174.486 22.5443C174.259 22.7717 174.148 23.0573 174.148 23.4071C174.148 23.8968 174.294 24.2758 174.579 24.5498C174.865 24.8238 175.267 24.9579 175.775 24.9579Z" fill="#5C4738"/>
<path d="M191.777 17.6414C191.235 17.449 190.745 17.3499 190.308 17.3499C189.696 17.3499 189.183 17.5131 188.775 17.8338C188.361 18.1603 188.087 18.5742 187.947 19.0814V27.558H184.537V14.4408H187.183L187.58 16.1723H187.685C187.982 15.5252 188.384 15.0296 188.892 14.6798C189.399 14.33 189.993 14.1552 190.675 14.1552C191.13 14.1552 191.643 14.2543 192.22 14.4466L191.777 17.6414Z" fill="#5C4738"/>
<path d="M193.561 10.7389C193.561 10.2317 193.748 9.80026 194.127 9.43881C194.506 9.07736 195.025 8.90247 195.689 8.90247C196.354 8.90247 196.89 9.08319 197.304 9.43881C197.712 9.80026 197.922 10.2317 197.922 10.7389C197.922 11.2461 197.718 11.6716 197.304 12.0098C196.89 12.3479 196.354 12.5228 195.689 12.5228C195.025 12.5228 194.506 12.3537 194.127 12.0098C193.748 11.6658 193.561 11.2461 193.561 10.7389ZM194.063 14.4408H197.473V27.558H194.063V14.4408Z" fill="#5C4738"/>
<path d="M200.172 20.9995C200.172 18.7783 200.715 17.0702 201.799 15.8692C202.883 14.6741 204.405 14.0736 206.364 14.0736C207.413 14.0736 208.322 14.2427 209.092 14.5691C209.862 14.9014 210.497 15.3678 211.004 15.9741C211.511 16.5804 211.89 17.3092 212.147 18.1662C212.398 19.0232 212.526 19.9676 212.526 20.9995C212.526 23.2207 211.989 24.9288 210.911 26.1298C209.832 27.3249 208.317 27.9254 206.358 27.9254C205.308 27.9254 204.399 27.7563 203.629 27.4298C202.86 27.0975 202.219 26.6311 201.7 26.0248C201.181 25.4185 200.796 24.6898 200.545 23.8328C200.301 22.9758 200.172 22.0314 200.172 20.9995ZM203.688 20.9995C203.688 21.5766 203.74 22.113 203.845 22.6027C203.95 23.0924 204.108 23.5238 204.317 23.8911C204.527 24.2584 204.801 24.544 205.145 24.7422C205.483 24.9463 205.891 25.0454 206.364 25.0454C207.256 25.0454 207.92 24.7248 208.357 24.0718C208.795 23.4247 209.01 22.4045 209.01 21.0053C209.01 19.7985 208.806 18.8249 208.41 18.0787C208.008 17.3383 207.326 16.9652 206.364 16.9652C205.524 16.9652 204.871 17.28 204.393 17.9097C203.927 18.5335 203.688 19.5653 203.688 20.9995Z" fill="#5C4738"/>
<path d="M232.674 22.9408C232.674 23.6753 232.68 24.4099 232.697 25.1445C232.715 25.879 232.791 26.6894 232.936 27.5813H230.494L230.021 25.879H229.916C229.567 26.4912 229.065 26.9867 228.407 27.3598C227.754 27.7388 226.978 27.9253 226.086 27.9253C224.442 27.9253 223.165 27.3831 222.256 26.2988C221.347 25.2144 220.892 23.5179 220.892 21.2093C220.892 18.9706 221.399 17.2275 222.413 15.9858C223.428 14.744 224.914 14.1202 226.873 14.1202C227.415 14.1202 227.859 14.1493 228.208 14.2135C228.558 14.2776 228.908 14.3767 229.258 14.5166V9.19397H232.668V22.9408H232.674ZM226.879 25.0395C227.544 25.0395 228.068 24.8763 228.453 24.5556C228.838 24.235 229.106 23.7628 229.269 23.1507V17.589C229.024 17.3966 228.75 17.2508 228.453 17.1576C228.156 17.0643 227.771 17.0118 227.299 17.0118C226.337 17.0118 225.614 17.3383 225.136 17.9854C224.652 18.6325 224.413 19.7402 224.413 21.3142C224.413 22.4336 224.611 23.3314 225.002 24.0135C225.398 24.6956 226.022 25.0395 226.879 25.0395Z" fill="#5C4738"/>
<path d="M246.158 26.4271C245.634 26.8468 244.923 27.2024 244.019 27.4881C243.115 27.7796 242.159 27.9195 241.145 27.9195C239.029 27.9195 237.478 27.3015 236.498 26.0714C235.519 24.8413 235.029 23.1448 235.029 20.9936C235.029 18.685 235.583 16.9535 236.679 15.7992C237.781 14.6449 239.332 14.0677 241.326 14.0677C241.99 14.0677 242.637 14.1552 243.267 14.3301C243.896 14.505 244.456 14.7907 244.946 15.1929C245.436 15.5952 245.826 16.1373 246.124 16.8194C246.421 17.5015 246.572 18.3527 246.572 19.3671C246.572 19.7344 246.549 20.125 246.508 20.5506C246.462 20.9703 246.398 21.4075 246.31 21.8623H238.446C238.498 22.9641 238.784 23.792 239.297 24.3516C239.81 24.9113 240.649 25.1911 241.804 25.1911C242.521 25.1911 243.162 25.0804 243.733 24.8646C244.299 24.6431 244.736 24.4216 245.033 24.1942L246.158 26.4271ZM241.279 16.802C240.387 16.802 239.728 17.0701 239.297 17.6006C238.865 18.137 238.609 18.8482 238.521 19.7402H243.401C243.471 18.7958 243.325 18.0729 242.97 17.5657C242.614 17.0526 242.048 16.802 241.279 16.802Z" fill="#5C4738"/>
<path d="M267.805 26.8061C267.245 27.2025 266.534 27.4882 265.665 27.6631C264.802 27.838 263.91 27.9254 263.001 27.9254C261.899 27.9254 260.855 27.7563 259.864 27.4124C258.873 27.0742 258.005 26.5204 257.253 25.7625C256.501 24.9988 255.9 24.0136 255.457 22.7951C255.008 21.5825 254.787 20.1076 254.787 18.3761C254.787 16.5747 255.037 15.0647 255.533 13.8521C256.028 12.6395 256.676 11.6601 257.474 10.9139C258.273 10.1735 259.159 9.63713 260.138 9.31066C261.118 8.99002 262.097 8.82678 263.077 8.82678C264.126 8.82678 265.012 8.89674 265.741 9.03666C266.464 9.17657 267.064 9.33981 267.537 9.5322L266.831 12.5754C266.429 12.383 265.951 12.2431 265.403 12.1556C264.849 12.0682 264.184 12.0274 263.397 12.0274C261.946 12.0274 260.78 12.5462 259.894 13.5781C259.007 14.61 258.57 16.2132 258.57 18.3878C258.57 19.3322 258.675 20.195 258.885 20.9762C259.095 21.7574 259.416 22.422 259.841 22.9759C260.267 23.5297 260.803 23.9553 261.444 24.2642C262.08 24.5732 262.82 24.7248 263.66 24.7248C264.447 24.7248 265.111 24.649 265.653 24.4916C266.196 24.3342 266.668 24.1302 267.07 23.8853L267.805 26.8061Z" fill="#5C4738"/>
<path d="M268.382 20.9995C268.382 18.7783 268.924 17.0702 270.008 15.8692C271.093 14.6741 272.614 14.0736 274.573 14.0736C275.623 14.0736 276.532 14.2427 277.302 14.5691C278.071 14.9014 278.707 15.3678 279.214 15.9741C279.721 16.5804 280.1 17.3092 280.356 18.1662C280.607 19.0232 280.735 19.9676 280.735 20.9995C280.735 23.2207 280.199 24.9288 279.12 26.1298C278.042 27.3249 276.526 27.9254 274.567 27.9254C273.518 27.9254 272.608 27.7563 271.839 27.4298C271.069 27.0975 270.428 26.6311 269.909 26.0248C269.39 25.4185 269.006 24.6898 268.755 23.8328C268.51 22.9758 268.382 22.0314 268.382 20.9995ZM271.897 20.9995C271.897 21.5766 271.95 22.113 272.055 22.6027C272.16 23.0924 272.317 23.5238 272.527 23.8911C272.737 24.2584 273.011 24.544 273.355 24.7422C273.693 24.9463 274.101 25.0454 274.573 25.0454C275.465 25.0454 276.13 24.7248 276.567 24.0718C277.004 23.4247 277.22 22.4045 277.22 21.0053C277.22 19.7985 277.016 18.8249 276.619 18.0787C276.217 17.3383 275.535 16.9652 274.573 16.9652C273.734 16.9652 273.081 17.28 272.603 17.9097C272.13 18.5335 271.897 19.5653 271.897 20.9995Z" fill="#5C4738"/>
<path d="M286.612 23.1506C286.612 23.7628 286.687 24.2117 286.845 24.4857C287.002 24.7597 287.253 24.9054 287.609 24.9054C287.818 24.9054 288.022 24.8879 288.227 24.8529C288.425 24.818 288.675 24.7363 288.973 24.6139L289.34 27.2898C289.06 27.4297 288.635 27.5697 288.052 27.7096C287.474 27.8495 286.88 27.9194 286.268 27.9194C285.271 27.9194 284.513 27.6863 283.988 27.2257C283.464 26.7651 283.201 25.9956 283.201 24.9287V9.18811H286.612V23.1506Z" fill="#5C4738"/>
<path d="M290.18 20.9995C290.18 18.7783 290.722 17.0702 291.806 15.8692C292.891 14.6741 294.412 14.0736 296.371 14.0736C297.42 14.0736 298.33 14.2427 299.099 14.5691C299.869 14.9014 300.504 15.3678 301.012 15.9741C301.519 16.5804 301.898 17.3092 302.154 18.1662C302.405 19.0232 302.533 19.9676 302.533 20.9995C302.533 23.2207 301.997 24.9288 300.918 26.1298C299.84 27.3249 298.324 27.9254 296.365 27.9254C295.316 27.9254 294.406 27.7563 293.637 27.4298C292.867 27.0975 292.226 26.6311 291.707 26.0248C291.188 25.4185 290.803 24.6898 290.553 23.8328C290.308 22.9758 290.18 22.0314 290.18 20.9995ZM293.695 20.9995C293.695 21.5766 293.748 22.113 293.853 22.6027C293.957 23.0924 294.115 23.5238 294.325 23.8911C294.535 24.2584 294.809 24.544 295.153 24.7422C295.491 24.9463 295.899 25.0454 296.371 25.0454C297.263 25.0454 297.928 24.7248 298.365 24.0718C298.802 23.4247 299.018 22.4045 299.018 21.0053C299.018 19.7985 298.814 18.8249 298.417 18.0787C298.015 17.3383 297.333 16.9652 296.371 16.9652C295.531 16.9652 294.879 17.28 294.401 17.9097C293.934 18.5335 293.695 19.5653 293.695 20.9995Z" fill="#5C4738"/>
<path d="M312.351 27.5581V20.4224C312.351 19.2156 312.234 18.3586 312.007 17.8514C311.779 17.3442 311.307 17.0935 310.59 17.0935C309.995 17.0935 309.512 17.2567 309.144 17.5774C308.777 17.898 308.497 18.3178 308.305 18.825V27.5639H304.894V14.4467H307.541L307.937 16.1782H308.042C308.445 15.6186 308.958 15.1288 309.576 14.7091C310.194 14.2893 310.998 14.0795 311.978 14.0795C312.817 14.0795 313.505 14.2485 314.036 14.5925C314.566 14.9306 314.986 15.5078 315.283 16.3123C315.685 15.6302 316.204 15.088 316.834 14.6858C317.463 14.2835 318.221 14.0795 319.119 14.0795C319.854 14.0795 320.477 14.1669 320.996 14.3418C321.509 14.5167 321.929 14.8199 322.256 15.2454C322.576 15.6768 322.821 16.2482 322.979 16.9652C323.136 17.6823 323.218 18.5918 323.218 19.6936V27.5639H319.807V20.1833C319.807 19.1514 319.696 18.3761 319.481 17.863C319.259 17.35 318.775 17.0877 318.023 17.0877C317.411 17.0877 316.927 17.2567 316.566 17.589C316.204 17.9213 315.942 18.3761 315.767 18.9532V27.5581H312.351Z" fill="#5C4738"/>
<path d="M326.016 9.19397H329.426V15.4902H329.531C329.899 15.0705 330.371 14.7382 330.948 14.4933C331.525 14.2485 332.161 14.126 332.866 14.126C334.44 14.126 335.641 14.6624 336.475 15.7409C337.302 16.8136 337.722 18.4576 337.722 20.6613C337.722 23.0224 337.139 24.8122 335.979 26.0364C334.813 27.2607 333.222 27.8728 331.193 27.8728C330.073 27.8728 329.047 27.7796 328.12 27.5988C327.193 27.4181 326.494 27.2082 326.022 26.9809V9.19397H326.016ZM331.869 17.0118C331.239 17.0118 330.726 17.175 330.336 17.4957C329.945 17.8222 329.642 18.2885 329.432 18.9007V24.6198C329.712 24.7597 330.015 24.8588 330.336 24.9113C330.656 24.9637 331.006 24.9871 331.374 24.9871C332.3 24.9871 333.006 24.6489 333.484 23.9785C333.962 23.3081 334.207 22.2354 334.207 20.7662C334.201 18.2594 333.426 17.0118 331.869 17.0118Z" fill="#5C4738"/>
<path d="M339.897 10.7389C339.897 10.2317 340.083 9.80026 340.462 9.43881C340.841 9.07736 341.36 8.90247 342.025 8.90247C342.689 8.90247 343.226 9.08319 343.639 9.43881C344.048 9.80026 344.257 10.2317 344.257 10.7389C344.257 11.2461 344.053 11.6716 343.639 12.0098C343.226 12.3479 342.689 12.5228 342.025 12.5228C341.36 12.5228 340.841 12.3537 340.462 12.0098C340.083 11.6658 339.897 11.2461 339.897 10.7389ZM340.392 14.4408H343.803V27.558H340.392V14.4408Z" fill="#5C4738"/>
<path d="M347.056 15.1987C347.756 14.8839 348.583 14.6332 349.545 14.4525C350.507 14.2659 351.516 14.1785 352.559 14.1785C353.469 14.1785 354.227 14.2892 354.845 14.5049C355.457 14.7265 355.941 15.0355 356.302 15.4377C356.658 15.84 356.914 16.3239 357.066 16.8777C357.212 17.4374 357.287 18.067 357.287 18.7666C357.287 19.5361 357.264 20.3115 357.212 21.0868C357.159 21.868 357.13 22.6318 357.118 23.3838C357.107 24.1359 357.13 24.8646 357.182 25.5758C357.235 26.2813 357.369 26.9517 357.579 27.5813H354.798L354.244 25.7741H354.116C353.766 26.3162 353.282 26.7826 352.658 27.1791C352.035 27.5697 351.236 27.7679 350.257 27.7679C349.644 27.7679 349.091 27.6746 348.607 27.4939C348.117 27.3073 347.697 27.045 347.347 26.7068C346.998 26.3687 346.73 25.9664 346.531 25.5001C346.333 25.0337 346.246 24.5148 346.246 23.9377C346.246 23.1331 346.426 22.4569 346.782 21.903C347.138 21.3492 347.656 20.9061 348.327 20.568C348.997 20.2299 349.808 19.9908 350.74 19.8626C351.673 19.7285 352.723 19.6935 353.877 19.746C353.999 18.7666 353.929 18.0612 353.667 17.6356C353.405 17.21 352.816 16.9943 351.906 16.9943C351.224 16.9943 350.501 17.0642 349.744 17.2042C348.98 17.3441 348.356 17.5306 347.866 17.758L347.056 15.1987ZM351.388 24.9579C352.07 24.9579 352.612 24.8063 353.014 24.4973C353.416 24.1942 353.714 23.8619 353.906 23.5121V21.8039C353.364 21.7515 352.845 21.7456 352.344 21.7806C351.848 21.8156 351.405 21.8972 351.02 22.0196C350.635 22.1421 350.327 22.3169 350.099 22.5443C349.872 22.7717 349.761 23.0573 349.761 23.4071C349.761 23.8968 349.907 24.2758 350.192 24.5498C350.478 24.8238 350.88 24.9579 351.388 24.9579Z" fill="#5C4738"/>
<path d="M32.4818 6.4887C32.4759 10.0682 29.357 12.9657 25.5093 12.954C21.6616 12.9424 18.5542 10.0449 18.5601 6.46538C18.5659 2.88585 21.6907 -0.00576002 25.5326 6.9835e-05C29.3745 0.00589969 32.4876 2.90917 32.4818 6.4887Z" fill="#FFB500"/>
<path d="M46.4035 6.95526C46.3043 6.09827 45.5348 5.47447 44.672 5.56192C44.3688 5.57941 44.0715 5.67852 43.8208 5.85341C43.8033 5.86507 43.7334 5.91754 43.7334 5.91754C37.1107 10.7447 31.0068 16.2481 25.5209 22.3344C20.0292 16.2422 13.9253 10.7388 7.29676 5.90588C7.27344 5.88839 7.24429 5.86507 7.22097 5.84758C6.97029 5.67269 6.67296 5.57358 6.36981 5.55609C5.50699 5.46864 4.73745 6.09244 4.63834 6.94943C4.62085 7.20011 4.66749 7.45663 4.77826 7.68399C4.77826 7.68982 4.85405 7.81808 4.85405 7.82391C9.10985 15.3911 14.2168 22.4452 20.0816 28.8464C21.0202 29.8724 21.9763 30.881 22.9499 31.8721C24.3957 33.2829 26.7102 33.2596 28.1327 31.8196C29.0946 30.846 30.0332 29.8549 30.9543 28.8405C36.8192 22.4452 41.9261 15.3911 46.1819 7.82391C46.1819 7.81808 46.2577 7.68982 46.2577 7.68399C46.3743 7.45663 46.4209 7.20594 46.4035 6.95526Z" fill="#5BC500"/>
<path d="M34.1491 32.7931C35.7639 29.5867 37.9443 26.7009 40.5911 24.2757C43.1096 21.9554 45.9837 20.049 49.1085 18.644C49.126 18.6324 49.1493 18.6265 49.1668 18.6207C49.3067 18.5624 49.4524 18.5333 49.604 18.5216C50.3153 18.4517 50.9565 18.9647 51.0382 19.6818C51.0556 19.9091 51.009 20.1365 50.8982 20.3347L50.8633 20.393C49.1901 23.238 47.1263 25.8439 44.7419 28.1292C42.1826 30.5894 39.291 32.6765 36.1487 34.3322C35.8397 34.5362 35.4549 34.612 35.0935 34.5362C34.5222 34.443 34.0908 33.9824 34.0383 33.4052C34.0091 33.1895 34.05 32.9738 34.1491 32.7931ZM16.8985 32.7931C15.2836 29.5867 13.1033 26.7009 10.4507 24.2699C7.93219 21.9496 5.05806 20.0432 1.93326 18.6382C1.91577 18.6265 1.89245 18.6207 1.87496 18.6149C1.73505 18.5566 1.5893 18.5274 1.43772 18.5158C0.72648 18.4458 0.0851954 18.9647 0.00357741 19.6759C-0.0139122 19.9033 0.0327267 20.1307 0.143494 20.3289L0.178473 20.3872C1.85164 23.2321 3.91541 25.8381 6.29982 28.1234C8.85913 30.5836 11.7507 32.6707 14.893 34.3264C15.202 34.5304 15.5868 34.6062 15.9482 34.5304C16.5196 34.4371 16.951 33.9766 17.0034 33.3994C17.0384 33.1895 16.9976 32.9738 16.8985 32.7931Z" fill="#418FE9"/>
</svg>
