<svg width="50" height="49" viewBox="0 0 50 49" fill="none" xmlns="http://www.w3.org/2000/svg">
<path d="M47.1667 11.8958V29.0833H42.5V14.1875L30.8333 6.16667L19.1667 14.1875V17.625H14.5V11.8958L30.8333 0.4375L47.1667 11.8958ZM34.3333 13.0417H32V15.3333H34.3333V13.0417ZM29.6667 13.0417H27.3333V15.3333H29.6667V13.0417ZM34.3333 17.625H32V19.9167H34.3333V17.625ZM29.6667 17.625H27.3333V19.9167H29.6667V17.625ZM42.5 33.6667H37.8333C37.8333 30.9167 36.0833 28.4417 33.47 27.4792L19.0967 22.2083H0.5V47.4167H14.5V44.1167L30.8333 48.5625L49.5 42.8333V40.5417C49.5 36.7375 46.3733 33.6667 42.5 33.6667ZM5.16667 42.8333V26.7917H9.83333V42.8333H5.16667ZM30.7633 43.7729L14.5 39.35V26.7917H18.2567L31.8367 31.7646C32.63 32.0625 33.1667 32.8188 33.1667 33.6667C33.1667 33.6667 28.5233 33.5521 27.8 33.3229L22.2467 31.5125L20.7767 35.8667L26.33 37.6771C27.52 38.0667 28.7567 38.2729 30.0167 38.2729H42.5C43.41 38.2729 44.2267 38.8 44.6 39.5563L30.7633 43.7729Z" fill="#656565"/>
</svg>
